<?xml version="1.0" encoding="UTF-8"?>
<!DOCTYPE svg PUBLIC "-//W3C//DTD SVG 1.1//EN" "http://www.w3.org/Graphics/SVG/1.1/DTD/svg11.dtd">
<!-- Creator: CorelDRAW X7 -->
<svg xmlns="http://www.w3.org/2000/svg" xml:space="preserve" width="2.53333in" height="0.337972in" version="1.1" style="shape-rendering:geometricPrecision; text-rendering:geometricPrecision; image-rendering:optimizeQuality; fill-rule:evenodd; clip-rule:evenodd"
viewBox="0 0 403 54"
 xmlns:xlink="http://www.w3.org/1999/xlink">
 <defs>
  <style type="text/css">
   <![CDATA[
    .fil0 {fill:#F58634}
    .fil1 {fill:white}
    .fil2 {fill:#FEFEFE;fill-rule:nonzero}
   ]]>
  </style>
 </defs>
 <g id="Layer_x0020_1">
  <metadata id="CorelCorpID_0Corel-Layer"/>
  <g id="_855504432">
   <rect class="fil0" width="403.195" height="53.0215"/>
   <g>
    <path class="fil1" d="M45 0c21,7 39,11 43,1 -5,32 -49,12 -84,-1l41 0z"/>
    <path class="fil1" d="M0 3c34,9 81,33 88,16 -5,33 -53,10 -88,-3l0 -13z"/>
    <path class="fil1" d="M0 21c34,9 81,33 88,16 -5,32 -53,10 -88,-3l0 -13z"/>
   </g>
  </g>
  <path class="fil2" d="M120 21c-2,0 -3,0 -3,2 -1,0 -1,2 -1,4 0,3 1,5 4,5 1,0 2,0 4,-1l0 3c-1,1 -3,1 -5,1 -2,0 -4,-1 -5,-2 -1,-2 -2,-4 -2,-6 0,-2 0,-4 1,-5 1,-1 1,-2 3,-3 1,-1 2,-1 4,-1 1,0 3,0 4,1l-1 3c0,0 -1,-1 -1,-1 -1,0 -2,0 -2,0zm22 6c0,2 -1,4 -2,6 -2,1 -3,2 -6,2 -3,0 -4,-1 -6,-2 -1,-2 -2,-4 -2,-7 0,-2 1,-4 2,-6 2,-1 3,-2 6,-2 3,0 4,1 6,2 1,2 2,4 2,7zm-12 0c0,1 0,3 1,4 1,1 2,1 3,1 3,0 4,-2 4,-5 0,-4 -1,-6 -4,-6 -1,0 -2,0 -3,1 -1,1 -1,3 -1,5l0 0zm15 8l0 -17 4 0 0 17 -4 0zm22 0l-4 0 -7 -13 0 0c0,3 0,4 0,5l0 8 -3 0 0 -17 4 0 7 13 1 0c-1,-3 -1,-4 -1,-5l0 -8 3 0 0 17zm26 -8c0,2 -1,4 -2,6 -2,1 -4,2 -6,2 -3,0 -5,-1 -6,-2 -1,-2 -2,-4 -2,-7 0,-2 1,-4 2,-6 1,-1 3,-2 6,-2 2,0 4,1 6,2 1,2 2,4 2,7zm-12 0c0,1 0,3 1,4 0,1 1,1 3,1 3,0 4,-2 4,-5 0,-4 -1,-6 -4,-6 -2,0 -3,0 -3,1 -1,1 -1,3 -1,5l0 0zm18 -1l2 0c1,0 2,0 2,-1 1,0 1,-1 1,-1 0,-1 0,-2 -1,-2 0,-1 -1,-1 -2,-1l-2 0 0 5 0 0zm8 -3c0,2 0,4 -1,4 -1,1 -3,2 -5,2l-2 0 0 6 -3 0 0 -17 5 0c2,0 4,1 5,2 1,0 1,2 1,3zm13 12l-10 0 0 -17 10 0 0 3 -6 0 0 4 6 0 0 3 -6 0 0 4 6 0 0 3 0 0zm7 -9l1 0c1,0 2,-1 2,-1 1,0 1,-1 1,-2 0,0 0,-1 -1,-1 0,-1 -1,-1 -2,-1l-1 0 0 5 0 0zm0 2l0 7 -4 0 0 -17 5 0c2,0 4,1 5,2 1,0 2,2 2,3 0,1 -1,2 -1,3 -1,1 -1,1 -2,2 2,3 4,6 4,7l-3 0 -4 -7 -2 0 0 0zm22 7l-1 -4 -7 0 -1 4 -3 0 5 -17 5 0 6 17 -4 0 0 0zm-2 -7c-1,-4 -2,-6 -2,-6 0,-1 0,-1 0,-1 -1,1 -1,3 -3,7l5 0 0 0zm12 7l-3 0 0 -14 -5 0 0 -3 13 0 0 3 -5 0 0 14zm7 0l0 -17 4 0 0 17 -4 0zm23 -8c0,2 -1,4 -2,6 -2,1 -3,2 -6,2 -3,0 -4,-1 -6,-2 -1,-2 -2,-4 -2,-7 0,-2 1,-4 2,-6 2,-1 4,-2 6,-2 3,0 5,1 6,2 1,2 2,4 2,7zm-12 0c0,1 0,3 1,4 1,1 2,1 3,1 3,0 4,-2 4,-5 0,-4 -1,-6 -4,-6 -1,0 -2,0 -3,1 -1,1 -1,3 -1,5l0 0zm30 8l-5 0 -7 -13 0 0c0,3 0,4 0,5l0 8 -3 0 0 -17 5 0 7 13 0 0c0,-3 0,-4 0,-5l0 -8 3 0 0 17zm14 -5c0,2 -1,3 -2,4 -1,1 -2,1 -4,1 -2,0 -4,0 -5,-1l0 -3c1,0 2,1 3,1 1,0 1,0 2,0 1,0 1,0 2,0 0,-1 0,-1 0,-2 0,0 0,0 0,-1 0,0 0,0 -1,0 0,0 -1,-1 -2,-1 -1,-1 -2,-1 -2,-2 -1,0 -1,-1 -1,-1 -1,-1 -1,-1 -1,-2 0,-2 1,-3 2,-4 1,-1 2,-1 4,-1 1,0 1,0 2,0 1,1 2,1 3,1l-1 3c-1,0 -2,-1 -3,-1 0,0 -1,0 -1,0 -1,0 -2,0 -2,0 0,1 0,1 0,2 0,0 0,0 0,0 0,1 0,1 1,1 0,0 1,1 2,1 1,1 2,2 3,2 0,1 1,2 1,3l0 0z"/>
 </g>
</svg>
